<svg width="128" height="72" viewBox="0 0 128 72" fill="none" xmlns="http://www.w3.org/2000/svg">
<path d="M9.64 54.432C6.904 54.432 4.624 53.496 2.8 51.624C0.976 49.752 0.064 46.824 0.064 42.84C0.064 39.288 0.76 35.568 2.152 31.68C3.592 27.744 5.704 24.432 8.488 21.744C11.32 19.008 14.68 17.64 18.568 17.64C20.536 17.64 22 17.976 22.96 18.648C23.92 19.32 24.4 20.208 24.4 21.312V21.6L27.928 5.04L38.584 3.6L30.304 42.48C30.112 43.2 30.016 43.968 30.016 44.784C30.016 45.744 30.232 46.44 30.664 46.872C31.144 47.256 31.912 47.448 32.968 47.448C34.312 47.448 35.464 46.872 36.424 45.72C37.432 44.568 38.224 43.032 38.8 41.112H41.824C38.896 49.704 34.072 54 27.352 54C25.384 54 23.776 53.472 22.528 52.416C21.328 51.36 20.584 49.824 20.296 47.808C19.048 49.728 17.536 51.312 15.76 52.56C14.032 53.808 11.992 54.432 9.64 54.432ZM14.32 47.448C15.472 47.448 16.624 46.92 17.776 45.864C18.976 44.808 19.792 43.344 20.224 41.472V41.112L23.752 24.624C23.32 22.944 22.336 22.104 20.8 22.104C18.88 22.104 17.152 23.232 15.616 25.488C14.08 27.696 12.88 30.384 12.016 33.552C11.152 36.672 10.72 39.432 10.72 41.832C10.72 44.232 11.056 45.768 11.728 46.44C12.448 47.112 13.312 47.448 14.32 47.448ZM43.7241 18H54.0921L53.1561 22.464C54.7881 21.024 56.2521 19.92 57.5481 19.152C58.8921 18.384 60.3321 18 61.8681 18C63.4041 18 64.6041 18.528 65.4681 19.584C66.3801 20.64 66.8361 21.912 66.8361 23.4C66.8361 24.792 66.3801 26.016 65.4681 27.072C64.5561 28.128 63.2841 28.656 61.6521 28.656C60.5961 28.656 59.8761 28.416 59.4921 27.936C59.1561 27.408 58.8921 26.664 58.7001 25.704C58.5561 25.08 58.4121 24.624 58.2681 24.336C58.1241 24.048 57.8601 23.904 57.4761 23.904C56.4681 23.904 55.6041 24.12 54.8841 24.552C54.2121 24.936 53.3241 25.632 52.2201 26.64L46.4601 54H36.0921L43.7241 18ZM77.9224 14.112C76.3384 14.112 74.9944 13.56 73.8904 12.456C72.7864 11.352 72.2344 10.008 72.2344 8.424C72.2344 6.84 72.7864 5.496 73.8904 4.392C74.9944 3.24 76.3384 2.664 77.9224 2.664C79.5064 2.664 80.8504 3.24 81.9544 4.392C83.1064 5.496 83.6824 6.84 83.6824 8.424C83.6824 10.008 83.1064 11.352 81.9544 12.456C80.8504 13.56 79.5064 14.112 77.9224 14.112ZM73.0264 54.432C70.7224 54.432 68.8504 53.712 67.4104 52.272C66.0184 50.832 65.3224 48.672 65.3224 45.792C65.3224 44.592 65.5144 43.032 65.8984 41.112L70.7944 18H81.1624L75.9784 42.48C75.7864 43.2 75.6904 43.968 75.6904 44.784C75.6904 45.744 75.9064 46.44 76.3384 46.872C76.8184 47.256 77.5864 47.448 78.6424 47.448C80.0344 47.448 81.3304 46.872 82.5304 45.72C83.7304 44.52 84.5944 42.984 85.1224 41.112H88.1464C86.3704 46.296 84.0904 49.824 81.3064 51.696C78.5224 53.52 75.7624 54.432 73.0264 54.432ZM78.5417 72C76.2857 72 74.3177 71.256 72.6377 69.768C70.9097 68.328 70.0457 66.48 70.0457 64.224C70.0457 62.16 70.5737 60.456 71.6297 59.112C72.6857 57.768 74.0777 56.688 75.8057 55.872C77.4857 55.104 79.7177 54.288 82.5017 53.424L91.1418 12.312C92.1018 7.704 93.7818 4.512 96.1818 2.736C98.6298 0.959999 101.318 0.0719991 104.246 0.0719991C107.174 0.0719991 110.006 0.479998 112.742 1.296C115.526 2.112 119.054 3.36 123.326 5.04L120.59 18H124.91L124.334 20.88H119.942L115.406 42.48C115.214 43.2 115.118 43.968 115.118 44.784C115.118 45.744 115.334 46.44 115.766 46.872C116.246 47.256 117.014 47.448 118.07 47.448C119.462 47.448 120.758 46.872 121.958 45.72C123.158 44.52 124.022 42.984 124.55 41.112H127.574C125.798 46.296 123.518 49.824 120.734 51.696C117.95 53.52 115.19 54.432 112.454 54.432C110.15 54.432 108.278 53.712 106.838 52.272C105.446 50.832 104.75 48.672 104.75 45.792C104.75 44.592 104.942 43.032 105.326 41.112L109.574 20.88H99.8538L91.6458 59.76C90.6858 64.368 88.9818 67.56 86.5338 69.336C84.1337 71.112 81.4697 72 78.5417 72ZM110.222 18L112.814 5.76C111.95 5.424 110.894 5.16 109.646 4.968C108.446 4.728 107.534 4.608 106.91 4.608C105.902 4.608 104.942 5.016 104.03 5.832C103.118 6.648 102.446 8.136 102.014 10.296L100.43 18H110.222ZM76.8857 65.592C77.7497 65.592 78.5657 65.136 79.3337 64.224C80.1017 63.36 80.7017 61.944 81.1337 59.976L81.9977 55.8C79.4537 56.664 77.4857 57.648 76.0938 58.752C74.7017 59.904 74.0057 61.392 74.0057 63.216C74.0057 63.792 74.2937 64.32 74.8697 64.8C75.4457 65.328 76.1177 65.592 76.8857 65.592Z" fill="black"/>
</svg>
